<svg xmlns="http://www.w3.org/2000/svg" width="20" height="20" viewBox="0 0 20 20">
    <g>
        <path fill="#39e29d" d="M13.325 2.117a3.331 3.331 0 1 0 3.209 4.165h2.616a.834.834 0 0 0 0-1.668h-2.619a3.337 3.337 0 0 0-3.206-2.497zM.854 4.614a.834.834 0 0 0 0 1.668h7.564a4.933 4.933 0 0 1-.076-.83 4.946 4.946 0 0 1 .076-.838zm5.825 4.165a3.335 3.335 0 0 0-3.207 2.505H.774a.835.835 0 0 0 .08 1.667h2.619a3.322 3.322 0 1 0 3.206-4.172zm4.911 2.505a4.588 4.588 0 0 1 0 1.667h7.56a.834.834 0 1 0 0-1.667zm1.736 4.164a3.334 3.334 0 1 0 3.207 4.172h2.617a.834.834 0 0 0 0-1.667h-2.616a3.337 3.337 0 0 0-3.209-2.505zM.774 17.953a.835.835 0 0 0 .08 1.667h7.567a4.588 4.588 0 0 1 0-1.667H.774z" transform="translate(0 -2.117)"/>
    </g>
</svg>
